<svg width="19" height="130" viewBox="0 0 19 130" fill="none" xmlns="http://www.w3.org/2000/svg">
<circle cx="9.5" cy="4.75" r="4.75" fill="#161616" fill-opacity="0.5"/>
<circle cx="9.4998" cy="16.15" r="5.7" fill="#161616" fill-opacity="0.6"/>
<circle cx="9.49985" cy="29.45" r="6.65" fill="#161616" fill-opacity="0.7"/>
<circle cx="9.4999" cy="44.65" r="7.6" fill="#161616" fill-opacity="0.8"/>
<circle cx="4.75" cy="4.75" r="4.75" transform="matrix(1 0 0 -1 4.75 129.2)" fill="#161616" fill-opacity="0.5"/>
<circle cx="5.7" cy="5.7" r="5.7" transform="matrix(1 0 0 -1 3.7998 118.75)" fill="#161616" fill-opacity="0.6"/>
<circle cx="6.65" cy="6.65" r="6.65" transform="matrix(1 0 0 -1 2.84985 106.4)" fill="#161616" fill-opacity="0.7"/>
<circle cx="7.6" cy="7.6" r="7.6" transform="matrix(1 0 0 -1 1.8999 92.1499)" fill="#161616" fill-opacity="0.8"/>
<circle cx="9.5" cy="64.6" r="9.31" stroke="#161616" stroke-width="0.38"/>
<circle cx="9.49995" cy="64.5999" r="8.55" fill="#1E1E1E" fill-opacity="0.9"/>
<circle cx="9.5001" cy="64.6" r="1.805" stroke="#E51E2A" stroke-width="0.19"/>
<circle cx="9.50005" cy="64.6" r="0.95" fill="#E51E2A"/>
</svg>
